<svg xmlns="http://www.w3.org/2000/svg" viewBox="0 0 100 100">
  <rect width="100" height="100" fill="#F4EFE6" rx="18"/>
  <!-- Teal: top-right (276° → 354°) -->
  <path d="M 54.39 8.23 A 42 42 0 0 1 91.77 45.61 L 75.86 47.28 A 26 26 0 0 0 52.72 24.14 Z" fill="#2E6E68"/>
  <!-- Dark: right-bottom (6° → 84°) -->
  <path d="M 91.77 54.39 A 42 42 0 0 1 54.39 91.77 L 52.72 75.86 A 26 26 0 0 0 75.86 52.72 Z" fill="#15263F"/>
  <!-- Dark: bottom-left (96° → 174°) -->
  <path d="M 45.61 91.77 A 42 42 0 0 1 8.23 54.39 L 24.14 52.72 A 26 26 0 0 0 47.28 75.86 Z" fill="#15263F"/>
  <!-- Dark: left-top (186° → 264°) -->
  <path d="M 8.23 45.61 A 42 42 0 0 1 45.61 8.23 L 47.28 24.14 A 26 26 0 0 0 24.14 47.28 Z" fill="#15263F"/>
</svg>
